<svg id="Layer_1" data-name="Layer 1" xmlns="http://www.w3.org/2000/svg" viewBox="0 0 800 300"><defs><style>.cls-1{font-size:17.83px;font-family:ArialMT, Arial;}.cls-2{letter-spacing:1.89em;}.cls-3{letter-spacing:-0.04em;}.cls-4{letter-spacing:1.61em;}.cls-5{letter-spacing:-0.07em;}.cls-6{letter-spacing:2.72em;}.cls-7{letter-spacing:-0.06em;}.cls-8{letter-spacing:-0.02em;}.cls-9{letter-spacing:-0.04em;}.cls-10{letter-spacing:-0.06em;}</style></defs><title>Artboard 1</title><text class="cls-1" transform="translate(10 31.84) scale(1.07 1)">Happiness<tspan x="0" y="42.79">1.</tspan><tspan class="cls-2" x="14.87" y="42.79">	</tspan><tspan class="cls-3" x="53.49" y="42.79">T</tspan><tspan x="63.72" y="42.79" xml:space="preserve">ry to play as legato as you can thanks!   Orz</tspan><tspan x="0" y="64.19">2. </tspan><tspan class="cls-4" x="19.82" y="64.19">	</tspan><tspan x="53.49" y="64.19">When you don’t need to pla</tspan><tspan class="cls-5" x="270.57" y="64.19">y</tspan><tspan x="278.16" y="64.19">, </tspan><tspan class="cls-6" x="0" y="85.58">	</tspan><tspan x="53.49" y="85.58">please guide the</tspan><tspan class="cls-7" x="184.35" y="85.58"> </tspan><tspan x="188.32" y="85.58">Audience to move around inside the</tspan><tspan class="cls-8" x="472.8" y="85.58"> </tspan><tspan class="cls-9" x="477.43" y="85.58">T</tspan><tspan x="487.66" y="85.58">unnel. </tspan><tspan x="0" y="106.98">3. </tspan><tspan class="cls-4" x="19.82" y="106.98">	</tspan><tspan x="53.49" y="106.98">(For wind instrumentalists) Change your breath when needed. </tspan><tspan x="0" y="128.37">4. </tspan><tspan class="cls-4" x="19.82" y="128.37">	</tspan><tspan x="53.49" y="128.37">From Bar 54, play the sequence C D E F# G#</tspan><tspan class="cls-10" x="414.21" y="128.37"> </tspan><tspan x="418.18" y="128.37">A# C</tspan><tspan class="cls-9" x="457.82" y="128.37">’</tspan><tspan x="461.12" y="128.37" xml:space="preserve"> D</tspan><tspan class="cls-9" x="478.95" y="128.37">’</tspan><tspan x="482.25" y="128.37" xml:space="preserve"> in any octave in concert pitch.</tspan></text><path d="M799,1V299H1V1H799m1-1H0V300H800V0Z"/></svg>