<svg xmlns="http://www.w3.org/2000/svg" xmlns:xlink="http://www.w3.org/1999/xlink" viewBox="0 0 800 300"><defs><style>.cls-1,.cls-33{fill:none;}.cls-2{font-size:50px;}.cls-2,.cls-22,.cls-23,.cls-24,.cls-25,.cls-6{font-family:Futura-Medium, Futura;}.cls-3{letter-spacing:-0.02em;}.cls-4{letter-spacing:0.01em;}.cls-5{letter-spacing:0.02em;}.cls-6{font-size:20px;}.cls-7{letter-spacing:-0.07em;}.cls-8{letter-spacing:-0.01em;}.cls-9{letter-spacing:0.01em;}.cls-10{letter-spacing:0.01em;}.cls-11{letter-spacing:-0.02em;}.cls-12{letter-spacing:0.03em;}.cls-13,.cls-25{letter-spacing:-0.02em;}.cls-14{letter-spacing:0.01em;}.cls-15,.cls-23{letter-spacing:0.04em;}.cls-16{letter-spacing:0.04em;}.cls-17,.cls-18,.cls-20{font-family:Futura-MediumItalic, Futura;}.cls-17,.cls-18,.cls-21{font-style:italic;}.cls-18{letter-spacing:0.03em;}.cls-19{letter-spacing:-0.01em;}.cls-24{letter-spacing:0.03em;}.cls-26{letter-spacing:0.02em;}.cls-27{letter-spacing:-0.06em;}.cls-28{fill:#fb0;}.cls-28,.cls-29,.cls-30,.cls-31,.cls-32,.cls-33{stroke:#8c6239;}.cls-28,.cls-29,.cls-30,.cls-31,.cls-32,.cls-33,.cls-35{stroke-linejoin:round;}.cls-29{fill:#c1272d;}.cls-30{fill:#f5a;}.cls-31{fill:#fcee21;}.cls-32{fill:#f7931e;}.cls-34{clip-path:url(#clip-path);}.cls-35{fill:#ff0;stroke:#f15a24;}</style><clipPath id="clip-path"><path class="cls-1" d="M319,34.51l10,10-3.65,13.6-12.21-1.55L307,50.37,309.22,42M484,4.5H289v1950"/></clipPath></defs><title>Artboard 1</title><g id="Layer_1" data-name="Layer 1"><path d="M799,1V299H1V1H799m1-1H0V300H800V0Z"/><text class="cls-2" transform="translate(386.28 57.19)">Dode<tspan class="cls-3" x="124" y="0">k</tspan><tspan x="148.05" y="0">aeders</tspan><tspan class="cls-4" x="302.32" y="0">t</tspan><tspan x="316.43" y="0">e</tspan><tspan class="cls-5" x="344.09" y="0">r</tspan><tspan x="363.55" y="0">n</tspan></text><text class="cls-6" transform="translate(20.3 99.76)"><tspan class="cls-7">Y</tspan><tspan x="10.64" y="0">ou m</tspan><tspan class="cls-4" x="55.56" y="0">a</tspan><tspan x="67.72" y="0">y t</tspan><tspan class="cls-8" x="90.23" y="0">r</tspan><tspan x="97.58" y="0">anspose a n</tspan><tspan class="cls-9" x="207.15" y="0">o</tspan><tspan class="cls-4" x="219.29" y="0">t</tspan><tspan x="224.93" y="0">e </tspan><tspan class="cls-10" x="242.17" y="0">t</tspan><tspan x="247.77" y="0">o a</tspan><tspan class="cls-11" x="277.96" y="0">n</tspan><tspan x="288.6" y="0">y oc</tspan><tspan class="cls-4" x="327.2" y="0">ta</tspan><tspan class="cls-3" x="345.01" y="0">v</tspan><tspan x="354.72" y="0">e whi</tspan><tspan class="cls-12" x="403.38" y="0">c</tspan><tspan x="413.43" y="0">h ma</tspan><tspan class="cls-11" x="458.38" y="0">k</tspan><tspan x="468.02" y="0">es </tspan><tspan class="cls-13" x="493.37" y="0">y</tspan><tspan x="503.86" y="0">ou most com</tspan><tspan class="cls-14" x="617.92" y="0">f</tspan><tspan x="624.1" y="0">o</tspan><tspan class="cls-15" x="636.12" y="0">r</tspan><tspan class="cls-4" x="644.33" y="0">t</tspan><tspan x="649.97" y="0">able.</tspan><tspan x="0" y="34">E</tspan><tspan class="cls-3" x="11.31" y="34">v</tspan><tspan x="21.02" y="34">e</tspan><tspan class="cls-16" x="32.08" y="34">r</tspan><tspan x="40.44" y="34">y n</tspan><tspan class="cls-9" x="68.45" y="34">o</tspan><tspan class="cls-4" x="80.59" y="34">t</tspan><tspan x="86.23" y="34">e is accen</tspan><tspan class="cls-4" x="175.82" y="34">t</tspan><tspan x="181.46" y="34">ed. </tspan><tspan class="cls-10" x="20" y="58">N</tspan><tspan x="37.02" y="58">o mat</tspan><tspan class="cls-4" x="88.5" y="58">t</tspan><tspan x="94.14" y="58">er </tspan><tspan class="cls-17" x="118.86" y="58">pp</tspan><tspan x="143.35" y="58" xml:space="preserve"> or </tspan><tspan class="cls-18" x="175.2" y="58">f</tspan><tspan class="cls-17" x="182.02" y="58">f</tspan><tspan x="188.16" y="58">, gi</tspan><tspan class="cls-3" x="217.46" y="58">v</tspan><tspan x="227.17" y="58">e an at</tspan><tspan class="cls-4" x="291" y="58">t</tspan><tspan x="296.64" y="58">a</tspan><tspan class="cls-12" x="308.63" y="58">c</tspan><tspan x="318.68" y="58">k when a n</tspan><tspan class="cls-9" x="418.59" y="58">o</tspan><tspan class="cls-4" x="430.73" y="58">t</tspan><tspan x="436.38" y="58">e s</tspan><tspan class="cls-4" x="461.73" y="58">t</tspan><tspan x="467.37" y="58">a</tspan><tspan class="cls-15" x="479.37" y="58">r</tspan><tspan x="487.57" y="58">ts.</tspan><tspan x="0" y="92">Dynamic </tspan><tspan class="cls-8" x="84.85" y="92">r</tspan><tspan x="92.2" y="92">ange is f</tspan><tspan class="cls-19" x="169.57" y="92">r</tspan><tspan x="176.88" y="92">om </tspan><tspan class="cls-17" x="210.89" y="92">pp </tspan><tspan class="cls-10" x="241.55" y="92">t</tspan><tspan x="247.16" y="92">o </tspan><tspan class="cls-18" x="265.35" y="92">f</tspan><tspan class="cls-17" x="272.18" y="92">f</tspan><tspan x="278.32" y="92">. </tspan><tspan class="cls-20"><tspan class="cls-21" x="20" y="116">pp </tspan><tspan class="cls-22" x="50.66" y="116">means so</tspan><tspan class="cls-23" x="134.93" y="116">f</tspan><tspan class="cls-22" x="141.59" y="116">t but audible! </tspan><tspan class="cls-24" x="268.47" y="116">f</tspan><tspan class="cls-22" x="275.07" y="116">f means as loud as </tspan><tspan class="cls-25" x="449.93" y="116">y</tspan><tspan class="cls-22" x="460.42" y="116">ou can.</tspan></tspan><tspan class="cls-19" x="0" y="150">F</tspan><tspan x="9.99" y="150">or pe</tspan><tspan class="cls-19" x="58.72" y="150">r</tspan><tspan x="66.03" y="150">cussionists: </tspan><tspan class="cls-19" x="169.68" y="150">F</tspan><tspan x="179.67" y="150">oll</tspan><tspan class="cls-13" x="201.65" y="150">o</tspan><tspan x="213.29" y="150">w </tspan><tspan class="cls-26" x="234.94" y="150">t</tspan><tspan x="240.81" y="150">he </tspan><tspan class="cls-5" x="269.01" y="150">r</tspan><tspan class="cls-11" x="276.8" y="150">h</tspan><tspan x="287.44" y="150">y</tspan><tspan class="cls-26" x="298.31" y="150">t</tspan><tspan x="304.18" y="150">hm st</tspan><tspan class="cls-5" x="350.72" y="150">r</tspan><tspan x="358.51" y="150">ict</tspan><tspan class="cls-4" x="378.49" y="150">l</tspan><tspan class="cls-27" x="383.64" y="150">y</tspan><tspan x="393.33" y="150">. Pit</tspan><tspan class="cls-12" x="426.92" y="150">c</tspan><tspan x="436.97" y="150">h is n</tspan><tspan class="cls-9" x="484.35" y="150">o</tspan><tspan x="496.48" y="150">t necessa</tspan><tspan class="cls-5" x="578.97" y="150">r</tspan><tspan x="586.76" y="150">i</tspan><tspan class="cls-4" x="591.74" y="150">l</tspan><tspan x="596.89" y="150">y absolu</tspan><tspan class="cls-4" x="673.94" y="150">t</tspan><tspan x="679.58" y="150">e.</tspan><tspan x="20" y="174">Just </tspan><tspan class="cls-14" x="58.86" y="174">f</tspan><tspan x="65.04" y="174">oll</tspan><tspan class="cls-13" x="87.02" y="174">o</tspan><tspan x="98.66" y="174">w </tspan><tspan class="cls-26" x="120.31" y="174">t</tspan><tspan x="126.18" y="174">he con</tspan><tspan class="cls-10" x="186.9" y="174">t</tspan><tspan x="192.51" y="174">our of </tspan><tspan class="cls-26" x="253.21" y="174">t</tspan><tspan x="259.08" y="174">he n</tspan><tspan class="cls-9" x="298.25" y="174">o</tspan><tspan class="cls-4" x="310.39" y="174">t</tspan><tspan x="316.04" y="174">es if </tspan><tspan class="cls-13" x="358.48" y="174">y</tspan><tspan x="368.96" y="174">ou h</tspan><tspan class="cls-4" x="409.02" y="174">a</tspan><tspan class="cls-3" x="421.19" y="174">v</tspan><tspan x="430.9" y="174">e a non-pit</tspan><tspan class="cls-12" x="527.05" y="174">c</tspan><tspan x="537.1" y="174">hed inst</tspan><tspan class="cls-5" x="606.83" y="174">r</tspan><tspan x="614.61" y="174">ument.</tspan></text></g><g id="Layer_2" data-name="Layer 2"><path class="cls-28" d="M338.52,8.86,293.36,54h33.06"/><path class="cls-29" d="M329,44.47,355,70.54,293.36,54"/><path class="cls-30" d="M329,44.47,355,70.54,338.52,8.86"/><path class="cls-31" d="M334.87,22.46,355,70.54,307,50.37l57.62-15.44L347.34,52.18l-2.25,8.4-8.41,2.25L319.43,80.08"/><path class="cls-32" d="M302.91,18.4l23.56,6.32,8.4-2.26L341,28.62l23.57,6.31L307,50.37,338.52,8.86l6.57,51.72"/><path class="cls-33" d="M341,28.62l-6.15-6.16L355,70.54l-7.7-18.36-2.25,8.4L338.52,8.86Z"/><path class="cls-33" d="M334.87,22.46l-8.4,2.26Zm10.22,38.12-8.41,2.25Z"/><g class="cls-34"><path class="cls-35" d="M302.91,18.4l16.52,61.68,15.44-57.62L293.36,54l51.73,6.57Z"/></g><path class="cls-33" d="M307,50.37,309.22,42l3.9,14.56Z"/><path class="cls-33" d="M307,50.37l18.36,7.7m22-5.89,2.09-2.09"/><path class="cls-33" d="M309.22,49.76l-2.25.61,12-15.86m22-5.89,23.57,6.31-22,5.9"/></g></svg>