<?xml version="1.0" encoding="utf-8"?>
<!DOCTYPE svg PUBLIC "-//W3C//DTD SVG 1.1//EN" "http://www.w3.org/Graphics/SVG/1.1/DTD/svg11.dtd">
<svg width="590px" height="835px" viewBox="0 0 590 835" xmlns="http://www.w3.org/2000/svg" xmlns:xlink="http://www.w3.org/1999/xlink" version="1.1">
<title>untitled</title>
<g transform="scale(0.410000,0.410000)">
<text x="114.0" y="97.0" font-family="Arial" font-style="normal" font-weight="normal" font-size="10.0" fill="#000000" fill-opacity="1.0" transform="scale(1.000000,1.000000)" xml:space="preserve">4</text>
<text x="122.0" y="97.0" font-family="Arial" font-style="normal" font-weight="normal" font-size="10.0" fill="#000000" fill-opacity="1.0" transform="scale(1.000000,1.000000)" xml:space="preserve">4</text>
<text x="148.0" y="97.0" font-family="Arial" font-style="normal" font-weight="normal" font-size="10.0" fill="#000000" fill-opacity="1.0" transform="scale(1.000000,1.000000)" xml:space="preserve"> </text>
<text x="116.0" y="128.0" font-family="Bravura" font-style="normal" font-weight="normal" font-size="24.0" fill="#000000" fill-opacity="1.0" transform="scale(1.000000,1.000000)" xml:space="preserve"></text>
<text x="98.8" y="125.0" font-family="Arial" font-style="normal" font-weight="normal" font-size="12.0" fill="#000000" fill-opacity="1.0" transform="scale(1.000000,1.000000)" xml:space="preserve"> </text>
<text x="137.0" y="115.0" font-family="Bravura" font-style="normal" font-weight="normal" font-size="24.0" fill="#000000" fill-opacity="1.0" transform="scale(1.000000,1.000000)" xml:space="preserve"></text>
<text x="137.0" y="127.0" font-family="Bravura" font-style="normal" font-weight="normal" font-size="24.0" fill="#000000" fill-opacity="1.0" transform="scale(1.000000,1.000000)" xml:space="preserve"></text>
<line x1="114.0" y1="133.0" x2="561.6" y2="133.0" stroke="#000000" stroke-width="0.3" stroke-opacity="1.0" transform="scale(1.000000,1.000000)" />
<line x1="114.0" y1="127.0" x2="561.6" y2="127.0" stroke="#000000" stroke-width="0.3" stroke-opacity="1.0" transform="scale(1.000000,1.000000)" />
<line x1="114.0" y1="121.0" x2="561.6" y2="121.0" stroke="#000000" stroke-width="0.3" stroke-opacity="1.0" transform="scale(1.000000,1.000000)" />
<line x1="114.0" y1="115.0" x2="561.6" y2="115.0" stroke="#000000" stroke-width="0.3" stroke-opacity="1.0" transform="scale(1.000000,1.000000)" />
<line x1="114.0" y1="109.0" x2="561.6" y2="109.0" stroke="#000000" stroke-width="0.3" stroke-opacity="1.0" transform="scale(1.000000,1.000000)" />
<line x1="176.2" y1="103.0" x2="187.1" y2="103.0" stroke="#000000" stroke-width="0.3" stroke-opacity="1.0" transform="scale(1.000000,1.000000)" />
<line x1="176.2" y1="97.0" x2="187.1" y2="97.0" stroke="#000000" stroke-width="0.3" stroke-opacity="1.0" transform="scale(1.000000,1.000000)" />
<text x="176.6" y="97.0" font-family="Bravura" font-style="normal" font-weight="normal" font-size="24.0" fill="#000000" fill-opacity="1.0" transform="scale(1.000000,1.000000)" xml:space="preserve"></text>
<g transform="translate(173.000000,118.000000)">
<text x="0.0" y="31.0" font-family="Aloisen New" font-style="normal" font-weight="normal" text-decoration="" font-size="24.0" fill="rgb(0,0,0)" fill-opacity="1.0" transform="matrix(1.000000,0.000000,0.000000,1.000000,0.000000,0.000000)" ></text>
</g>
<text x="116.0" y="224.0" font-family="Bravura" font-style="normal" font-weight="normal" font-size="24.0" fill="#000000" fill-opacity="1.0" transform="scale(1.000000,1.000000)" xml:space="preserve"></text>
<text x="98.8" y="221.0" font-family="Arial" font-style="normal" font-weight="normal" font-size="12.0" fill="#000000" fill-opacity="1.0" transform="scale(1.000000,1.000000)" xml:space="preserve"> </text>
<text x="137.0" y="211.0" font-family="Bravura" font-style="normal" font-weight="normal" font-size="24.0" fill="#000000" fill-opacity="1.0" transform="scale(1.000000,1.000000)" xml:space="preserve"></text>
<text x="137.0" y="223.0" font-family="Bravura" font-style="normal" font-weight="normal" font-size="24.0" fill="#000000" fill-opacity="1.0" transform="scale(1.000000,1.000000)" xml:space="preserve"></text>
<line x1="114.0" y1="229.0" x2="561.6" y2="229.0" stroke="#000000" stroke-width="0.3" stroke-opacity="1.0" transform="scale(1.000000,1.000000)" />
<line x1="114.0" y1="223.0" x2="561.6" y2="223.0" stroke="#000000" stroke-width="0.3" stroke-opacity="1.0" transform="scale(1.000000,1.000000)" />
<line x1="114.0" y1="217.0" x2="561.6" y2="217.0" stroke="#000000" stroke-width="0.3" stroke-opacity="1.0" transform="scale(1.000000,1.000000)" />
<line x1="114.0" y1="211.0" x2="561.6" y2="211.0" stroke="#000000" stroke-width="0.3" stroke-opacity="1.0" transform="scale(1.000000,1.000000)" />
<line x1="114.0" y1="205.0" x2="561.6" y2="205.0" stroke="#000000" stroke-width="0.3" stroke-opacity="1.0" transform="scale(1.000000,1.000000)" />
<line x1="176.2" y1="199.0" x2="187.1" y2="199.0" stroke="#000000" stroke-width="0.3" stroke-opacity="1.0" transform="scale(1.000000,1.000000)" />
<line x1="176.2" y1="193.0" x2="187.1" y2="193.0" stroke="#000000" stroke-width="0.3" stroke-opacity="1.0" transform="scale(1.000000,1.000000)" />
<text x="176.6" y="193.0" font-family="Bravura" font-style="normal" font-weight="normal" font-size="24.0" fill="#000000" fill-opacity="1.0" transform="scale(1.000000,1.000000)" xml:space="preserve"></text>
<path d="m175.6,191.0 0.0,-0.0 C174.3,187.8 172.1,187.0 170.5,187.0 167.8,187.0 166.5,188.9 165.6,190.9 l0.0,0.2 c0.6,-1.9 2.9,-3.6 4.8,-3.6 2.2,-0.0 3.8,1.2 5.1,3.5 z" stroke="#000000" stroke-width="0.3" fill="#000000" transform="scale(1.000000,1.000000)"/>
<text x="174.0" y="247.0" font-family="Bravura" font-style="normal" font-weight="normal" font-size="24.0" fill="#000000" fill-opacity="1.0" transform="scale(1.000000,1.000000)" xml:space="preserve"></text>
<text x="596.0" y="97.0" font-family="Bravura" font-style="normal" font-weight="normal" font-size="24.0" fill="#000000" fill-opacity="1.0" transform="scale(1.000000,1.000000)" xml:space="preserve"> </text>
<line x1="562.0" y1="133.0" x2="944.1" y2="133.0" stroke="#000000" stroke-width="0.3" stroke-opacity="1.0" transform="scale(1.000000,1.000000)" />
<line x1="562.0" y1="127.0" x2="944.1" y2="127.0" stroke="#000000" stroke-width="0.3" stroke-opacity="1.0" transform="scale(1.000000,1.000000)" />
<line x1="562.0" y1="121.0" x2="944.1" y2="121.0" stroke="#000000" stroke-width="0.3" stroke-opacity="1.0" transform="scale(1.000000,1.000000)" />
<line x1="562.0" y1="115.0" x2="944.1" y2="115.0" stroke="#000000" stroke-width="0.3" stroke-opacity="1.0" transform="scale(1.000000,1.000000)" />
<line x1="562.0" y1="109.0" x2="944.1" y2="109.0" stroke="#000000" stroke-width="0.3" stroke-opacity="1.0" transform="scale(1.000000,1.000000)" />
<text x="587.0" y="121.0" font-family="Bravura" font-style="normal" font-weight="normal" font-size="24.0" fill="#000000" fill-opacity="1.0" transform="scale(1.000000,1.000000)" xml:space="preserve"></text>
<line x1="184.1" y1="163.0" x2="587.5" y2="157.0" stroke="#000000" stroke-width="0.3" stroke-opacity="1.0" transform="scale(1.000000,1.000000)" />
<line x1="184.1" y1="163.0" x2="587.5" y2="169.0" stroke="#000000" stroke-width="0.3" stroke-opacity="1.0" transform="scale(1.000000,1.000000)" />
<line x1="562.0" y1="229.0" x2="944.1" y2="229.0" stroke="#000000" stroke-width="0.3" stroke-opacity="1.0" transform="scale(1.000000,1.000000)" />
<line x1="562.0" y1="223.0" x2="944.1" y2="223.0" stroke="#000000" stroke-width="0.3" stroke-opacity="1.0" transform="scale(1.000000,1.000000)" />
<line x1="562.0" y1="217.0" x2="944.1" y2="217.0" stroke="#000000" stroke-width="0.3" stroke-opacity="1.0" transform="scale(1.000000,1.000000)" />
<line x1="562.0" y1="211.0" x2="944.1" y2="211.0" stroke="#000000" stroke-width="0.3" stroke-opacity="1.0" transform="scale(1.000000,1.000000)" />
<line x1="562.0" y1="205.0" x2="944.1" y2="205.0" stroke="#000000" stroke-width="0.3" stroke-opacity="1.0" transform="scale(1.000000,1.000000)" />
<text x="978.0" y="97.0" font-family="Bravura" font-style="normal" font-weight="normal" font-size="24.0" fill="#000000" fill-opacity="1.0" transform="scale(1.000000,1.000000)" xml:space="preserve"> </text>
<line x1="944.0" y1="133.0" x2="1326.1" y2="133.0" stroke="#000000" stroke-width="0.3" stroke-opacity="1.0" transform="scale(1.000000,1.000000)" />
<line x1="944.0" y1="127.0" x2="1326.1" y2="127.0" stroke="#000000" stroke-width="0.3" stroke-opacity="1.0" transform="scale(1.000000,1.000000)" />
<line x1="944.0" y1="121.0" x2="1326.1" y2="121.0" stroke="#000000" stroke-width="0.3" stroke-opacity="1.0" transform="scale(1.000000,1.000000)" />
<line x1="944.0" y1="115.0" x2="1326.1" y2="115.0" stroke="#000000" stroke-width="0.3" stroke-opacity="1.0" transform="scale(1.000000,1.000000)" />
<line x1="944.0" y1="109.0" x2="1326.1" y2="109.0" stroke="#000000" stroke-width="0.3" stroke-opacity="1.0" transform="scale(1.000000,1.000000)" />
<line x1="944.0" y1="229.0" x2="1326.1" y2="229.0" stroke="#000000" stroke-width="0.3" stroke-opacity="1.0" transform="scale(1.000000,1.000000)" />
<line x1="944.0" y1="223.0" x2="1326.1" y2="223.0" stroke="#000000" stroke-width="0.3" stroke-opacity="1.0" transform="scale(1.000000,1.000000)" />
<line x1="944.0" y1="217.0" x2="1326.1" y2="217.0" stroke="#000000" stroke-width="0.3" stroke-opacity="1.0" transform="scale(1.000000,1.000000)" />
<line x1="944.0" y1="211.0" x2="1326.1" y2="211.0" stroke="#000000" stroke-width="0.3" stroke-opacity="1.0" transform="scale(1.000000,1.000000)" />
<line x1="944.0" y1="205.0" x2="1326.1" y2="205.0" stroke="#000000" stroke-width="0.3" stroke-opacity="1.0" transform="scale(1.000000,1.000000)" />
<text x="720.0" y="2017.0" font-family="Arial" font-style="normal" font-weight="normal" font-size="12.0" fill="#000000" fill-opacity="1.0" transform="scale(1.000000,1.000000)" xml:space="preserve">2</text>
<rect x="114.0" y="109.0" width="1.0" height="120.0" fill="#000000" stroke="#000000" stroke-width="0.0" rx="0" fill-opacity="1.0" stroke-opacity="1.0" transform="scale(1.000000,1.000000)"/>
<rect x="562.0" y="109.0" width="1.0" height="120.0" fill="#000000" stroke="#000000" stroke-width="0.0" rx="0" fill-opacity="1.0" stroke-opacity="1.0" transform="scale(1.000000,1.000000)"/>
<rect x="562.0" y="109.0" width="1.0" height="120.0" fill="#000000" stroke="#000000" stroke-width="0.0" rx="0" fill-opacity="1.0" stroke-opacity="1.0" transform="scale(1.000000,1.000000)"/>
<rect x="1326.1" y="109.0" width="1.0" height="120.0" fill="#000000" stroke="#000000" stroke-width="0.0" rx="0" fill-opacity="1.0" stroke-opacity="1.0" transform="scale(1.000000,1.000000)"/>
<rect x="1326.1" y="109.0" width="1.0" height="120.0" fill="#000000" stroke="#000000" stroke-width="0.0" rx="0" fill-opacity="1.0" stroke-opacity="1.0" transform="scale(1.000000,1.000000)"/>
<rect x="944.0" y="109.0" width="1.0" height="120.0" fill="#000000" stroke="#000000" stroke-width="0.0" rx="0" fill-opacity="1.0" stroke-opacity="1.0" transform="scale(1.000000,1.000000)"/>
</g>
</svg> 