<svg xmlns="http://www.w3.org/2000/svg" xmlns:xlink="http://www.w3.org/1999/xlink" viewBox="0 0 800 300"><defs><style>.cls-1,.cls-62{fill:none;}.cls-2{font-size:35px;}.cls-2,.cls-41,.cls-42,.cls-44,.cls-45,.cls-7{font-family:Futura-Medium, Futura;}.cls-16,.cls-3{letter-spacing:-0.02em;}.cls-4{letter-spacing:0.01em;}.cls-5{letter-spacing:0.02em;}.cls-6{letter-spacing:0em;}.cls-7{font-size:17px;}.cls-8{letter-spacing:-0.07em;}.cls-15,.cls-9{letter-spacing:0.01em;}.cls-10,.cls-11,.cls-14,.cls-15,.cls-16,.cls-34,.cls-35,.cls-47,.cls-48,.cls-49,.cls-50,.cls-51,.cls-54{text-decoration:underline;}.cls-11,.cls-31{letter-spacing:-0.01em;}.cls-12{letter-spacing:0.01em;}.cls-13,.cls-50{letter-spacing:0.01em;}.cls-14,.cls-25{letter-spacing:-0.02em;}.cls-17{letter-spacing:0.03em;}.cls-18{letter-spacing:-0.02em;}.cls-19,.cls-45,.cls-51{letter-spacing:0em;}.cls-20{letter-spacing:-0.02em;}.cls-21{letter-spacing:0.01em;}.cls-22,.cls-42{letter-spacing:0.04em;}.cls-23{letter-spacing:0.01em;}.cls-24{letter-spacing:0.04em;}.cls-26,.cls-48{letter-spacing:-0.02em;}.cls-27{letter-spacing:-0.02em;}.cls-28{letter-spacing:0em;}.cls-29,.cls-30,.cls-39{font-family:Futura-MediumItalic, Futura;}.cls-29,.cls-30,.cls-40,.cls-43{font-style:italic;}.cls-30,.cls-43{letter-spacing:0.03em;}.cls-32,.cls-47{letter-spacing:0.01em;}.cls-33{letter-spacing:0.02em;}.cls-34{letter-spacing:0em;}.cls-35{letter-spacing:0em;}.cls-36{letter-spacing:0em;}.cls-37{letter-spacing:-0.02em;}.cls-38{letter-spacing:-0.01em;}.cls-44{letter-spacing:-0.02em;}.cls-46{letter-spacing:-0.02em;}.cls-49{letter-spacing:0.02em;}.cls-52{letter-spacing:0.02em;}.cls-53{letter-spacing:0.01em;}.cls-54{letter-spacing:-0.02em;}.cls-55{letter-spacing:-0.02em;}.cls-56{letter-spacing:-0.02em;}.cls-57{fill:#fb0;}.cls-57,.cls-58,.cls-59,.cls-60,.cls-61,.cls-62{stroke:#603813;}.cls-57,.cls-58,.cls-59,.cls-60,.cls-61,.cls-62,.cls-64{stroke-linejoin:round;stroke-width:2px;}.cls-58{fill:#c1272d;}.cls-59{fill:#f5a;}.cls-60{fill:#fcee21;}.cls-61{fill:#f7931e;}.cls-63{clip-path:url(#clip-path);}.cls-64{fill:#ff0;stroke:#f15a24;}</style><clipPath id="clip-path"><path class="cls-1" d="M656.64,118.19l17,17-6.21,23.2-20.83-2.65-10.49-10.49,3.84-14.33M938,67H605.45V3392.5"/></clipPath></defs><title>Artboard 1</title><g id="Layer_1" data-name="Layer 1"><path d="M799,1V299H1V1H799m1-1H0V300H800V0Z"/><text class="cls-2" transform="translate(761.53 7.32) rotate(90)">Dode<tspan class="cls-3" x="86.8" y="0">k</tspan><tspan x="103.63" y="0">aeders</tspan><tspan class="cls-4" x="211.62" y="0">t</tspan><tspan x="221.5" y="0">e</tspan><tspan class="cls-5" x="240.86" y="0">r</tspan><tspan class="cls-6" x="254.49" y="0">n</tspan></text><text class="cls-7" transform="translate(11.31 22.94)"><tspan class="cls-8">Y</tspan><tspan x="9.05" y="0">ou m</tspan><tspan class="cls-9" x="47.22" y="0">a</tspan><tspan x="57.57" y="0">y </tspan><tspan class="cls-10" x="72.05" y="0">t</tspan><tspan class="cls-11" x="76.7" y="0">r</tspan><tspan class="cls-10" x="82.94" y="0">anspose</tspan><tspan x="146.07" y="0" xml:space="preserve"> a n</tspan><tspan class="cls-12" x="176.08" y="0">o</tspan><tspan class="cls-9" x="186.39" y="0">t</tspan><tspan x="191.19" y="0">e </tspan><tspan class="cls-13" x="205.84" y="0">t</tspan><tspan x="210.61" y="0">o </tspan><tspan class="cls-10" x="226.07" y="0">a</tspan><tspan class="cls-14" x="236.27" y="0">n</tspan><tspan class="cls-10" x="245.31" y="0">y oc</tspan><tspan class="cls-15" x="278.12" y="0">ta</tspan><tspan class="cls-16" x="293.26" y="0">v</tspan><tspan class="cls-10" x="301.51" y="0">e</tspan><tspan x="310.91" y="0" xml:space="preserve"> whi</tspan><tspan class="cls-17" x="342.87" y="0">c</tspan><tspan x="351.41" y="0">h ma</tspan><tspan class="cls-18" x="389.62" y="0">k</tspan><tspan class="cls-19" x="397.82" y="0">es </tspan><tspan class="cls-20" x="419.36" y="0">y</tspan><tspan x="428.28" y="0">ou most com</tspan><tspan class="cls-21" x="525.23" y="0">f</tspan><tspan class="cls-19" x="530.49" y="0">o</tspan><tspan class="cls-22" x="540.7" y="0">r</tspan><tspan class="cls-23" x="547.68" y="0">t</tspan><tspan x="552.48" y="0">able.</tspan><tspan x="0" y="32.52">E</tspan><tspan class="cls-3" x="9.61" y="32.52">v</tspan><tspan x="17.86" y="32.52">e</tspan><tspan class="cls-24" x="27.27" y="32.52">r</tspan><tspan x="34.37" y="32.52">y n</tspan><tspan class="cls-12" x="58.18" y="32.52">o</tspan><tspan class="cls-9" x="68.5" y="32.52">t</tspan><tspan x="73.3" y="32.52">e is </tspan><tspan class="cls-10" x="104.32" y="32.52">accen</tspan><tspan class="cls-15" x="149.45" y="32.52">t</tspan><tspan class="cls-10" x="154.25" y="32.52">ed</tspan><tspan x="173.84" y="32.52">. Pl</tspan><tspan class="cls-9" x="197.75" y="32.52">a</tspan><tspan x="208.09" y="32.52">y it li</tspan><tspan class="cls-25" x="245.17" y="32.52">k</tspan><tspan x="253.36" y="32.52">e h</tspan><tspan class="cls-26" x="277.34" y="32.52">o</tspan><tspan x="287.23" y="32.52">w a </tspan><tspan class="cls-10" x="321.07" y="32.52">bell</tspan><tspan x="349.14" y="32.52" xml:space="preserve"> sounds li</tspan><tspan class="cls-27" x="420.89" y="32.52">k</tspan><tspan class="cls-28" x="429.08" y="32.52">e. </tspan><tspan class="cls-13" x="24.24" y="52.92">N</tspan><tspan x="38.7" y="52.92">o mat</tspan><tspan class="cls-9" x="82.46" y="52.92">t</tspan><tspan x="87.25" y="52.92">er </tspan><tspan class="cls-29" x="108.26" y="52.92">pp</tspan><tspan x="129.08" y="52.92" xml:space="preserve"> or </tspan><tspan class="cls-30" x="156.15" y="52.92">f</tspan><tspan class="cls-29" x="161.95" y="52.92">f</tspan><tspan x="167.17" y="52.92">, gi</tspan><tspan class="cls-3" x="192.08" y="52.92">v</tspan><tspan x="200.33" y="52.92">e an at</tspan><tspan class="cls-9" x="254.58" y="52.92">t</tspan><tspan x="259.38" y="52.92">a</tspan><tspan class="cls-17" x="269.57" y="52.92">c</tspan><tspan x="278.11" y="52.92">k when a n</tspan><tspan class="cls-12" x="363.04" y="52.92">o</tspan><tspan class="cls-9" x="373.36" y="52.92">t</tspan><tspan x="378.16" y="52.92">e s</tspan><tspan class="cls-23" x="399.7" y="52.92">t</tspan><tspan x="404.5" y="52.92">a</tspan><tspan class="cls-22" x="414.7" y="52.92">r</tspan><tspan x="421.67" y="52.92">ts.</tspan><tspan x="0" y="85.44">Blue lines a</tspan><tspan class="cls-31" x="87.73" y="85.44">r</tspan><tspan x="93.97" y="85.44">e just </tspan><tspan class="cls-32" x="138.91" y="85.44">f</tspan><tspan x="144.17" y="85.44">or </tspan><tspan class="cls-26" x="165.99" y="85.44">y</tspan><tspan x="174.91" y="85.44">our </tspan><tspan class="cls-31" x="205.99" y="85.44">r</tspan><tspan x="212.23" y="85.44">e</tspan><tspan class="cls-33" x="221.64" y="85.44">f</tspan><tspan x="226.94" y="85.44">e</tspan><tspan class="cls-31" x="236.35" y="85.44">r</tspan><tspan x="242.59" y="85.44">ence. </tspan><tspan class="cls-10" x="289.32" y="85.44">Do</tspan><tspan class="cls-34" x="311.88" y="85.44">n</tspan><tspan class="cls-35" x="321.22" y="85.44">’</tspan><tspan class="cls-10" x="326.82" y="85.44">t sus</tspan><tspan class="cls-15" x="359.77" y="85.44">t</tspan><tspan class="cls-10" x="364.57" y="85.44">ain</tspan><tspan class="cls-36" x="388.32" y="85.44"> </tspan><tspan class="cls-37" x="393.57" y="85.44">y</tspan><tspan x="402.48" y="85.44">our n</tspan><tspan class="cls-12" x="442.89" y="85.44">o</tspan><tspan class="cls-9" x="453.21" y="85.44">t</tspan><tspan class="cls-28" x="458" y="85.44">es. </tspan><tspan x="0" y="117.95">Dynamic </tspan><tspan class="cls-31" x="72.13" y="117.95">r</tspan><tspan x="78.37" y="117.95">ange is f</tspan><tspan class="cls-38" x="144.13" y="117.95">r</tspan><tspan x="150.34" y="117.95">om </tspan><tspan class="cls-29" x="179.26" y="117.95">pp </tspan><tspan class="cls-13" x="205.32" y="117.95">t</tspan><tspan x="210.08" y="117.95">o </tspan><tspan class="cls-30" x="225.55" y="117.95">f</tspan><tspan class="cls-29" x="231.35" y="117.95">f</tspan><tspan x="236.57" y="117.95">. </tspan><tspan class="cls-39"><tspan class="cls-40" x="24.24" y="138.35">pp </tspan><tspan class="cls-41" x="50.3" y="138.35">means so</tspan><tspan class="cls-42" x="121.93" y="138.35">f</tspan><tspan class="cls-41" x="127.59" y="138.35">t but audible! </tspan><tspan class="cls-43" x="235.43" y="138.35">f</tspan><tspan class="cls-40" x="241.23" y="138.35">f </tspan><tspan class="cls-41" x="251.7" y="138.35">means as loud as </tspan><tspan class="cls-44" x="390.04" y="138.35">y</tspan><tspan class="cls-45" x="398.96" y="138.35">ou can.</tspan></tspan><tspan class="cls-46" x="0" y="170.87">P</tspan><tspan x="8.76" y="170.87">e</tspan><tspan class="cls-38" x="18.16" y="170.87">r</tspan><tspan x="24.37" y="170.87">cussion: </tspan><tspan x="24.24" y="191.27">Pit</tspan><tspan class="cls-17" x="42.3" y="191.27">c</tspan><tspan x="50.84" y="191.27">h is n</tspan><tspan class="cls-12" x="91.11" y="191.27">o</tspan><tspan x="101.42" y="191.27">t necessa</tspan><tspan class="cls-33" x="171.54" y="191.27">r</tspan><tspan x="178.16" y="191.27">i</tspan><tspan class="cls-9" x="182.39" y="191.27">l</tspan><tspan x="186.77" y="191.27">y absolu</tspan><tspan class="cls-9" x="252.26" y="191.27">t</tspan><tspan x="257.06" y="191.27">e. </tspan><tspan x="24.24" y="211.67">If </tspan><tspan class="cls-26" x="39.54" y="211.67">y</tspan><tspan x="48.46" y="211.67">ou h</tspan><tspan class="cls-9" x="82.51" y="211.67">a</tspan><tspan class="cls-3" x="92.85" y="211.67">v</tspan><tspan x="101.1" y="211.67">e a non-pit</tspan><tspan class="cls-17" x="182.83" y="211.67">c</tspan><tspan x="191.37" y="211.67">hed inst</tspan><tspan class="cls-33" x="250.64" y="211.67">r</tspan><tspan x="257.25" y="211.67">ument, </tspan><tspan class="cls-47" x="313.83" y="211.67">f</tspan><tspan class="cls-10" x="319.09" y="211.67">oll</tspan><tspan class="cls-48" x="337.77" y="211.67">o</tspan><tspan class="cls-10" x="347.67" y="211.67">w </tspan><tspan class="cls-49" x="366.07" y="211.67">t</tspan><tspan class="cls-10" x="371.06" y="211.67">he con</tspan><tspan class="cls-50" x="422.67" y="211.67">t</tspan><tspan class="cls-51" x="427.44" y="211.67">our</tspan><tspan x="453.28" y="211.67" xml:space="preserve"> of </tspan><tspan class="cls-52" x="479.04" y="211.67">t</tspan><tspan class="cls-19" x="484.02" y="211.67">he n</tspan><tspan class="cls-53" x="517.32" y="211.67">o</tspan><tspan class="cls-23" x="527.64" y="211.67">t</tspan><tspan x="532.43" y="211.67">es.</tspan><tspan x="0" y="244.19">Singers:</tspan><tspan x="24.24" y="264.59">Sing ea</tspan><tspan class="cls-17" x="82.72" y="264.59">c</tspan><tspan x="91.26" y="264.59">h n</tspan><tspan class="cls-12" x="115.15" y="264.59">o</tspan><tspan class="cls-9" x="125.47" y="264.59">t</tspan><tspan x="130.27" y="264.59">e in a</tspan><tspan class="cls-25" x="173.92" y="264.59">n</tspan><tspan x="182.96" y="264.59">y </tspan><tspan class="cls-48" x="197.45" y="264.59">vo</tspan><tspan class="cls-54" x="215.56" y="264.59">w</tspan><tspan class="cls-10" x="228.46" y="264.59">el</tspan><tspan x="242.1" y="264.59" xml:space="preserve"> of </tspan><tspan class="cls-26" x="267.85" y="264.59">y</tspan><tspan x="276.77" y="264.59">our </tspan><tspan class="cls-17" x="307.86" y="264.59">c</tspan><tspan x="316.4" y="264.59">hoice. Change </tspan><tspan class="cls-52" x="433.75" y="264.59">t</tspan><tspan class="cls-19" x="438.74" y="264.59">he </tspan><tspan class="cls-20" x="462.71" y="264.59">vo</tspan><tspan class="cls-55" x="480.82" y="264.59">w</tspan><tspan x="493.72" y="264.59">el </tspan><tspan class="cls-21" x="512.6" y="264.59">f</tspan><tspan x="517.86" y="264.59">or </tspan><tspan class="cls-56" x="539.68" y="264.59">ev</tspan><tspan x="557.05" y="264.59">e</tspan><tspan class="cls-24" x="566.45" y="264.59">r</tspan><tspan x="573.56" y="264.59">y n</tspan><tspan class="cls-55" x="597.36" y="264.59">e</tspan><tspan x="606.51" y="264.59">w n</tspan><tspan class="cls-53" x="634.24" y="264.59">o</tspan><tspan class="cls-9" x="644.55" y="264.59">t</tspan><tspan x="649.35" y="264.59">e.</tspan></text></g><g id="Layer_2" data-name="Layer 2"><path class="cls-57" d="M689.89,74.44l-77,77h56.38"/><path class="cls-58" d="M673.62,135.17l44.46,44.46L612.89,151.44"/><path class="cls-59" d="M673.62,135.17l44.46,44.46L689.89,74.44"/><path class="cls-60" d="M683.68,97.64l34.4,82-82-34.4,98.26-26.33-29.41,29.42-3.84,14.33-14.33,3.84L657.35,195.9"/><path class="cls-61" d="M629.16,90.71l40.19,10.77,14.33-3.84,10.49,10.49,40.18,10.77-98.26,26.33,53.8-70.79,11.21,88.21"/><path class="cls-62" d="M694.17,108.13,683.68,97.64l34.4,82-13.14-31.31-3.84,14.33L689.89,74.44Z"/><path class="cls-62" d="M683.68,97.64l-14.33,3.84Zm17.42,65-14.33,3.84Z"/><g class="cls-63"><path class="cls-64" d="M629.16,90.71,657.35,195.9l26.33-98.26-70.79,53.8,88.21,11.21Z"/></g><path class="cls-62" d="M636.09,145.23l3.84-14.33,6.65,24.82Z"/><path class="cls-62" d="M636.09,145.23l31.32,13.14m37.53-10.05,3.56-3.57"/><path class="cls-62" d="M639.93,144.2l-3.84,1,20.55-27m37.53-10.06,40.18,10.77L696.82,129"/></g></svg>